<?xml version="1.0" encoding="UTF-8" standalone="no"?>
<svg
   data-name="Layer 1"
   width="148.12598"
   height="79.527863"
   viewBox="0 0 148.12597 79.527863"
   version="1.1"
   id="svg64"
   sodipodi:docname="undraw_contact_us_re_4qqt.svg"
   inkscape:export-filename="../Desktop/envelope.svg"
   inkscape:export-xdpi="96"
   inkscape:export-ydpi="96"
   xmlns:inkscape="http://www.inkscape.org/namespaces/inkscape"
   xmlns:sodipodi="http://sodipodi.sourceforge.net/DTD/sodipodi-0.dtd"
   xmlns="http://www.w3.org/2000/svg"
   xmlns:svg="http://www.w3.org/2000/svg">
  <defs
     id="defs68" />
  <sodipodi:namedview
     id="namedview66"
     pagecolor="#ffffff"
     bordercolor="#000000"
     borderopacity="0.25"
     inkscape:showpageshadow="2"
     inkscape:pageopacity="0.0"
     inkscape:pagecheckerboard="0"
     inkscape:deskcolor="#d1d1d1"
     showgrid="false" />
  <path
     d="M 140.95703,79.52786 H 7.16992 A 7.18838,7.18838 0 0 1 0,72.35892 V 7.16992 A 7.1884,7.1884 0 0 1 7.16894,0 h 133.78711 a 7.18841,7.18841 0 0 1 7.16993,7.16895 v 65.189 a 7.1884,7.1884 0 0 1 -7.16895,7.16991 z"
     fill="#ffffff"
     id="path38" />
  <path
     d="M 140.95703,79.52786 H 7.16992 A 7.18838,7.18838 0 0 1 0,72.35892 V 7.16992 A 7.1884,7.1884 0 0 1 7.16894,0 h 133.78711 a 7.18841,7.18841 0 0 1 7.16993,7.16895 v 65.189 a 7.1884,7.1884 0 0 1 -7.16895,7.16991 z M 7.16992,2.00003 A 5.18526,5.18526 0 0 0 2,7.17093 v 65.187 a 5.18494,5.18494 0 0 0 5.1709,5.16992 h 133.78418 a 5.18515,5.18515 0 0 0 5.1709,-5.17089 v -65.187 a 5.18527,5.18527 0 0 0 -5.1709,-5.16992 z"
     fill="#3f3d56"
     id="path40" />
  <path
     d="m 81.23379,69.89397 c -26.38574,0 -53.89882,-0.25214 -64.16427,-0.41561 A 5.17627,5.17627 0 0 1 11.99998,64.32315 V 10.36151 a 1.82954,1.82954 0 0 1 1.823,-1.82756 h 120.47574 a 1.82942,1.82942 0 0 1 1.82726,1.8227 v 36.612 a 22.84157,22.84157 0 0 1 -22.45691,22.75218 c -9.56736,0.12457 -20.89633,0.17314 -32.43528,0.17314 z"
     fill="#6c63ff"
     id="path42"
     style="fill:#f9de06;fill-opacity:1" />
  <path
     d="M 127.14744,43.60501 H 18.28808 A 4.43849,4.43849 0 0 1 14.12402,40.66947 L 1.80273,6.10306 A 4.4228,4.4228 0 0 1 5.96045,0.19632 L 142.03271,0.00687 a 4.42312,4.42312 0 0 1 4.35938,5.19775 l 0.105,0.0444 -0.39063,0.91162 -0.004,0.009 -14.895,34.75538 a 4.40962,4.40962 0 0 1 -4.06012,2.67968 z M 142.03904,2.00687 5.96433,2.19632 A 2.42256,2.42256 0 0 0 3.6865,5.43167 l 12.3208,34.56494 a 2.43347,2.43347 0 0 0 2.28223,1.6084 h 108.85791 a 2.4131,2.4131 0 0 0 2.22168,-1.46679 l 14.89551,-34.75635 0.73242,0.314 -0.73242,-0.314 a 2.42117,2.42117 0 0 0 -2.22559,-3.375 z"
     fill="#3f3d56"
     id="path44" />
  <circle
     cx="73.859993"
     cy="42.605225"
     r="8.5240202"
     fill="#ffffff"
     id="circle46" />
</svg>
