<?xml version="1.0" encoding="UTF-8" standalone="no"?>
<svg
   data-name="Layer 1"
   width="158.74896"
   height="106.07371"
   viewBox="0 0 158.74896 106.07371"
   version="1.1"
   id="svg64"
   sodipodi:docname="envelope.svg"
   inkscape:export-filename="../Desktop/envelope.svg"
   inkscape:export-xdpi="96"
   inkscape:export-ydpi="96"
   inkscape:version="1.2.2 (b0a84865, 2022-12-01)"
   xmlns:inkscape="http://www.inkscape.org/namespaces/inkscape"
   xmlns:sodipodi="http://sodipodi.sourceforge.net/DTD/sodipodi-0.dtd"
   xmlns="http://www.w3.org/2000/svg"
   xmlns:svg="http://www.w3.org/2000/svg">
  <defs
     id="defs68" />
  <sodipodi:namedview
     id="namedview66"
     pagecolor="#ffffff"
     bordercolor="#000000"
     borderopacity="0.25"
     inkscape:showpageshadow="2"
     inkscape:pageopacity="0.0"
     inkscape:pagecheckerboard="0"
     inkscape:deskcolor="#d1d1d1"
     showgrid="false"
     inkscape:zoom="2.9675134"
     inkscape:cx="83.571652"
     inkscape:cy="58.129476"
     inkscape:window-width="1495"
     inkscape:window-height="659"
     inkscape:window-x="1998"
     inkscape:window-y="568"
     inkscape:window-maximized="0"
     inkscape:current-layer="svg64" />
  <path
     d="M 153.07411,78.104531 22.210572,105.92043 a 7.18838,7.18838 0 0 1 -8.503746,-5.52157 L 0.15327032,36.6344 A 7.1884,7.1884 0 0 1 5.6748416,28.130653 L 136.53838,0.31474867 a 7.18841,7.18841 0 0 1 8.50376,5.52157903 l 13.55355,63.7644643 a 7.1884,7.1884 0 0 1 -5.52158,8.503739 z"
     fill="#ffffff"
     id="path38" />
  <path
     d="M 153.07411,78.104531 22.210572,105.92043 a 7.18838,7.18838 0 0 1 -8.503746,-5.52157 L 0.15327032,36.6344 A 7.1884,7.1884 0 0 1 5.6748416,28.130653 L 136.53838,0.31474867 a 7.18841,7.18841 0 0 1 8.50376,5.52157903 l 13.55355,63.7644643 a 7.1884,7.1884 0 0 1 -5.52158,8.503739 z M 6.0916298,30.086774 a 5.18526,5.18526 0 0 0 -3.9818543,6.13279 L 15.662915,99.982072 a 5.18494,5.18494 0 0 0 6.13279,3.981858 L 152.65638,76.148631 a 5.18515,5.18515 0 0 0 3.98281,-6.132984 L 143.08605,6.253139 a 5.18527,5.18527 0 0 0 -6.13279,-3.9818543 z"
     fill="#3f3d56"
     id="path40" />
  <path
     d="M 92.65297,81.098324 C 66.843822,86.584228 39.879546,92.057889 29.804433,94.032298 a 5.17627,5.17627 0 0 1 -6.030586,-3.98854 L 12.554591,37.26131 a 1.82954,1.82954 0 0 1 1.403192,-2.166647 L 131.80084,10.046348 a 1.82942,1.82942 0 0 1 2.16629,1.402961 l 7.61206,35.81194 a 22.84157,22.84157 0 0 1 -17.23573,26.924045 c -9.33239,2.111014 -20.40369,4.513948 -31.69049,6.91303 z"
     fill="#6c63ff"
     id="path42"
     style="fill:#f9de06;fill-opacity:1" />
  <path
     d="M 132.09751,45.837856 25.616993,68.47099 A 4.43849,4.43849 0 0 1 20.933595,66.465355 L 1.6947937,35.216045 A 4.4228,4.4228 0 0 1 4.5335772,28.573942 L 137.59294,0.09761867 a 4.42312,4.42312 0 0 1 5.34479,4.17780043 l 0.11194,0.021599 -0.19256,0.9729154 -0.002,0.00963 -7.34346,37.0927365 a 4.40962,4.40962 0 0 1 -3.41426,3.465269 z M 138.01496,2.0525977 4.9531958,30.529431 A 2.42256,2.42256 0 0 0 3.3978089,34.167668 L 22.635825,65.415643 a 2.43347,2.43347 0 0 0 2.566763,1.09875 L 131.68169,43.881561 a 2.4131,2.4131 0 0 0 1.86817,-1.89665 l 7.34375,-37.0937915 0.7817,0.1548597 -0.7817,-0.1548597 a 2.42117,2.42117 0 0 0 -2.87865,-2.8385218 z"
     fill="#3f3d56"
     id="path44" />
  <circle
     cx="66.393196"
     cy="71.301025"
     r="8.5240202"
     fill="#ffffff"
     id="circle46"
     transform="rotate(-12)" />
</svg>
