<?xml version="1.0" encoding="UTF-8" standalone="no"?>
<svg
   data-name="Layer 1"
   width="160.57809"
   height="160.57809"
   viewBox="0 0 160.57809 160.5781"
   version="1.1"
   id="svg64"
   sodipodi:docname="mobile.svg"
   inkscape:export-filename="../Desktop/envelope.svg"
   inkscape:export-xdpi="96"
   inkscape:export-ydpi="96"
   inkscape:version="1.2.2 (b0a84865, 2022-12-01)"
   xmlns:inkscape="http://www.inkscape.org/namespaces/inkscape"
   xmlns:sodipodi="http://sodipodi.sourceforge.net/DTD/sodipodi-0.dtd"
   xmlns="http://www.w3.org/2000/svg"
   xmlns:svg="http://www.w3.org/2000/svg">
  <defs
     id="defs68" />
  <sodipodi:namedview
     id="namedview66"
     pagecolor="#ffffff"
     bordercolor="#000000"
     borderopacity="0.25"
     inkscape:showpageshadow="2"
     inkscape:pageopacity="0.0"
     inkscape:pagecheckerboard="0"
     inkscape:deskcolor="#d1d1d1"
     showgrid="false"
     inkscape:zoom="1.4458047"
     inkscape:cx="80.232135"
     inkscape:cy="80.232135"
     inkscape:window-width="1309"
     inkscape:window-height="456"
     inkscape:window-x="2322"
     inkscape:window-y="751"
     inkscape:window-maximized="0"
     inkscape:current-layer="svg64" />
  <path
     d="M 143.83035,62.056609 62.056249,143.83072 a 9.11863,9.11863 0 0 1 -12.828904,0.0677 0.80182,0.80182 0 0 1 -0.07347,-0.0678 l -9.517552,-9.51755 a 40.6065,40.6065 0 0 1 0,-57.426269 L 99.148554,17.374553 a 9.12338,9.12338 0 0 1 12.902406,0 l 3.85656,3.85656 c -6.99849,3.425169 15.05546,29.867604 23.79273,23.792729 l 4.13021,4.130211 a 9.12341,9.12341 0 0 1 -2e-5,12.902414 z"
     fill="#6c63ff"
     id="path30"
     style="fill:#6ecfde;fill-opacity:1" />
  <path
     d="m 128.15245,21.246698 a 1.19706,1.19706 0 0 1 1.69091,-7e-6 l 5.74908,5.749082 a 1.19566,1.19566 0 0 1 -1.69091,1.690911 l -5.74908,-5.749082 a 1.19706,1.19706 0 0 1 0,-1.690904 z"
     fill="#3f3d56"
     id="path32" />
  <path
     d="M 40.756602,156.17828 4.3999998,119.82168 A 15.06329,15.06329 0 0 1 4.3996538,98.543213 L 61.563085,41.379782 a 2.18651,2.18651 0 0 1 0.613542,-1.902075 l 5.74904,-5.74904 a 2.18557,2.18557 0 0 1 1.901729,-0.613196 l 1.542998,-1.542999 a 2.1856,2.1856 0 0 1 0.613196,-1.901728 l 5.749387,-5.749386 a 2.18557,2.18557 0 0 1 1.901728,-0.613196 l 2.788723,-2.788723 a 2.18353,2.18353 0 0 1 0.551048,-2.177946 l 5.74904,-5.74904 a 2.1843,2.1843 0 0 1 2.178292,-0.551394 l 7.641448,-7.6414484 a 15.06329,15.06329 0 0 1 21.278404,3.745e-4 l 36.3566,36.3566019 a 15.06288,15.06288 0 0 1 1e-5,21.278109 l -16.65669,16.656685 a 1.8859,1.8859 0 0 1 -0.50374,1.756368 l -10.96222,10.962227 a 1.88674,1.88674 0 0 1 -1.75672,0.504089 L 62.034704,156.17827 a 15.06288,15.06288 0 0 1 -21.278102,1e-5 z M 118.40745,5.8141987 A 13.061,13.061 0 0 0 99.957421,5.8138454 L 91.113056,14.658209 90.406649,14.00427 a 0.19547,0.19547 0 0 0 -0.268962,0.0024 l -5.748983,5.748983 a 0.19617,0.19617 0 0 0 -0.0024,0.26897 l 0.654293,0.706053 -4.984615,4.984615 -0.670507,-0.405342 a 0.19651,0.19651 0 0 0 -0.238239,0.02556 l -5.749386,5.749386 a 0.19651,0.19651 0 0 0 -0.02555,0.238231 l 0.405342,0.670507 -3.528972,3.528972 -0.670507,-0.405342 a 0.19651,0.19651 0 0 0 -0.238238,0.02556 l -5.74904,5.74904 a 0.19664,0.19664 0 0 0 -0.02589,0.238571 L 63.970337,41.80094 5.8138658,99.957417 a 13.061,13.061 0 0 0 3.46e-4,18.450033 l 36.3566022,36.3566 a 13.0609,13.0609 0 0 0 18.449689,0 l 65.475037,-65.475048 0.62631,0.626313 10.80099,-10.800985 -0.62632,-0.626313 17.86757,-17.86757 a 13.06089,13.06089 0 0 0 -1e-5,-18.449682 z"
     fill="#3f3d56"
     id="path34" />
  <circle
     cx="119.51067"
     cy="-75.593796"
     r="1.19565"
     fill="#3f3d56"
     id="circle36"
     transform="rotate(45)" />
  <circle
     cx="114.31808"
     cy="45.095642"
     r="8.5240202"
     fill="#ffffff"
     id="circle48"
     transform="rotate(45)" />
</svg>
