<?xml version="1.0" encoding="UTF-8" standalone="no"?>
<svg
   data-name="Layer 1"
   width="83.544411"
   height="163.2309"
   viewBox="0 0 83.544407 163.2309"
   version="1.1"
   id="svg64"
   sodipodi:docname="undraw_contact_us_re_4qqt.svg"
   inkscape:export-filename="../Desktop/envelope.svg"
   inkscape:export-xdpi="96"
   inkscape:export-ydpi="96"
   xmlns:inkscape="http://www.inkscape.org/namespaces/inkscape"
   xmlns:sodipodi="http://sodipodi.sourceforge.net/DTD/sodipodi-0.dtd"
   xmlns="http://www.w3.org/2000/svg"
   xmlns:svg="http://www.w3.org/2000/svg">
  <defs
     id="defs68" />
  <sodipodi:namedview
     id="namedview66"
     pagecolor="#ffffff"
     bordercolor="#000000"
     borderopacity="0.25"
     inkscape:showpageshadow="2"
     inkscape:pageopacity="0.0"
     inkscape:pagecheckerboard="0"
     inkscape:deskcolor="#d1d1d1"
     showgrid="false" />
  <path
     d="m 73.942868,23.79268 v 115.64605 a 9.11863,9.11863 0 0 1 -9.02354,9.11927 0.80182,0.80182 0 0 1 -0.0999,0.004 h -13.45985 a 40.6065,40.6065 0 0 1 -40.6065,-40.6065 v -84.163 a 9.12338,9.12338 0 0 1 9.12338,-9.12338 h 5.454 c -2.52672,7.37064 31.7654,10.47377 33.648,0 h 5.841 a 9.12341,9.12341 0 0 1 9.12337,9.1234 z"
     fill="#6c63ff"
     id="path30"
     style="fill:#6ecfde;fill-opacity:1" />
  <path
     d="m 33.999948,6.02167 a 1.19706,1.19706 0 0 1 1.19565,-1.19566 h 8.13043 a 1.19566,1.19566 0 0 1 0,2.39131 h -8.13043 a 1.19706,1.19706 0 0 1 -1.19565,-1.19565 z"
     fill="#3f3d56"
     id="path32" />
  <path
     d="m 67.612788,163.2309 h -51.416 A 15.06329,15.06329 0 0 1 1.1503984,148.185 V 67.3437 A 2.18651,2.18651 0 0 1 0.23926842,65.56489 V 57.43452 A 2.18557,2.18557 0 0 1 1.1503984,55.6562 V 53.47407 A 2.1856,2.1856 0 0 1 0.23926842,51.69575 V 43.56489 A 2.18557,2.18557 0 0 1 1.1503984,41.78657 V 37.84272 A 2.18353,2.18353 0 0 1 8.4234134e-6,35.91303 V 27.78266 A 2.1843,2.1843 0 0 1 1.1503984,25.85248 V 15.04584 A 15.06329,15.06329 0 0 1 16.196768,0 h 51.416 a 15.06288,15.06288 0 0 1 15.0459,15.04589 V 38.602 a 1.8859,1.8859 0 0 1 0.88574,1.59814 v 15.50293 a 1.88674,1.88674 0 0 1 -0.88574,1.59863 v 90.8833 a 15.06288,15.06288 0 0 1 -15.04588,15.0459 z M 16.196768,2 A 13.061,13.061 0 0 0 3.1503784,15.04589 v 12.50782 l -0.96191,0.0371 a 0.19547,0.19547 0 0 0 -0.18848,0.19189 v 8.13029 a 0.19617,0.19617 0 0 0 0.18848,0.1919 l 0.96191,0.0366 v 7.04931 l -0.76074,0.1875 a 0.19651,0.19651 0 0 0 -0.15039,0.18653 v 8.13086 a 0.19651,0.19651 0 0 0 0.15039,0.18652 l 0.76074,0.1875 v 4.99072 l -0.76074,0.1875 a 0.19651,0.19651 0 0 0 -0.15039,0.18653 v 8.13037 a 0.19664,0.19664 0 0 0 0.15039,0.187 l 0.76074,0.1875 V 148.185 a 13.061,13.061 0 0 0 13.0463896,13.0459 h 51.416 a 13.0609,13.0609 0 0 0 13.0459,-13.0459 V 55.5893 h 0.88574 V 40.3144 h -0.88574 V 15.04584 A 13.06089,13.06089 0 0 0 67.612768,1.99995 Z"
     fill="#3f3d56"
     id="path34" />
  <circle
     cx="47.869469"
     cy="6.0216565"
     r="1.19565"
     fill="#3f3d56"
     id="circle36" />
  <circle
     cx="42.676872"
     cy="126.7111"
     r="8.5240202"
     fill="#ffffff"
     id="circle48" />
</svg>
